<svg xmlns="http://www.w3.org/2000/svg" width="194" height="26" viewBox="0 0 194 26" fill="none">
  <path fill-rule="evenodd" clip-rule="evenodd" d="M193.975 13.3205L193.975 13.035L193.832 12.8922L188.124 7.16504L182.415 1.43792L182.131 1.15185L181.846 1.43792L176.137 7.16504L170.429 12.8922L170.144 13.1777L169.859 12.8922L164.151 7.16504L158.443 1.43792L158.158 1.15185L157.873 1.43792L152.165 7.16504L146.456 12.8922L146.171 13.1777L145.886 12.8922L140.178 7.16504L134.47 1.43791L134.185 1.15185L133.9 1.43791L128.192 7.16504L122.483 12.8922L122.198 13.1777L121.914 12.8922L116.205 7.16504L110.497 1.43791L110.212 1.15185L109.928 1.43791L104.219 7.16504L98.5103 12.8922L98.2253 13.1777L97.9408 12.8922L92.2322 7.16504L86.524 1.43791L86.239 1.15185L85.9545 1.43791L80.2464 7.16504L74.5378 12.8922L74.2528 13.1777L73.9677 12.8922L68.2591 7.16504L62.551 1.43791L62.2665 1.15185L61.9815 1.43791L56.2734 7.16504L50.5648 12.8922L50.2798 13.1777L49.9952 12.8922L44.2866 7.16504L38.578 1.43791L38.2935 1.15185L38.009 1.43791L32.3004 7.16504L26.5917 12.8922L26.3067 13.1777L26.0222 12.8922L20.3136 7.16504L14.605 1.43791L14.3205 1.15185L14.0359 1.43791L8.32783 7.16504L2.61873 12.8922L2.3342 13.1777L2.0492 12.8922L0.0236873 10.8599L0.0236873 12.0022L1.19513 13.1777L0.0236872 14.3528L0.0236871 15.4951L2.0492 13.4633L2.3342 13.1777L2.61873 13.4633L8.32783 19.1904L14.0359 24.9176L14.3205 25.2031L14.605 24.9176L20.3136 19.1904L26.0222 13.4633L26.3067 13.1777L26.5917 13.4633L32.3004 19.1904L38.009 24.9176L38.2935 25.2031L38.578 24.9176L44.2866 19.1904L49.9952 13.4633L50.2798 13.1777L50.5648 13.4633L56.2734 19.1904L61.9815 24.9176L62.2665 25.2031L62.551 24.9176L68.2591 19.1904L73.9677 13.4633L74.2528 13.1777L74.5378 13.4633L80.2464 19.1904L85.9545 24.9176L86.239 25.2031L86.524 24.9176L92.2322 19.1904L97.9408 13.4633L98.2253 13.1777L98.5103 13.4633L104.219 19.1904L109.928 24.9176L110.212 25.2031L110.497 24.9176L116.205 19.1904L121.914 13.4633L122.198 13.1777L122.483 13.4633L128.192 19.1904L133.9 24.9176L134.185 25.2031L134.47 24.9176L140.178 19.1904L145.886 13.4633L146.171 13.1777L146.456 13.4633L152.165 19.1904L157.873 24.9176L158.158 25.2031L158.443 24.9176L164.151 19.1904L169.859 13.4633L170.144 13.1777L170.429 13.4633L176.137 19.1904L181.846 24.9176L182.131 25.2031L182.415 24.9176L188.124 19.1904L193.832 13.4633L193.975 13.3205Z" stroke="#DBDDEA" stroke-miterlimit="10"/>
</svg>